# xmcd
#
# Track frame offsets:
#	150
#	12815
#	26550
#	39656
#	52463
#	65001
#	75684
#	91294
#	104906
#	117731
#	133294
#
# Disc length: 2003 seconds
#
# Revision: 0
# Processed by: cddbd v1.5.2PL0 Copyright (c) Steve Scherf et al.
# Submitted via: EasyCDDAExtractor 10.5.1.1
#
DISCID=a607d10b
DTITLE=Humberto e Ronaldo - Ao vivo
DYEAR=2007
DGENRE=Country
TTITLE0=E deixe o tempo ver
TTITLE1=Rosto molhado
TTITLE2=Pode ser pra valer
TTITLE3=Malicia de mulher
TTITLE4=Ainda nao acabou
TTITLE5=Ingrata
TTITLE6=Manda cerveja
TTITLE7=Palavras de adeus
TTITLE8=So voce
TTITLE9=Em cada amanhecer
TTITLE10=Pout pourri 
EXTD=
EXTT0=
EXTT1=
EXTT2=
EXTT3=
EXTT4=
EXTT5=
EXTT6=
EXTT7=
EXTT8=
EXTT9=
EXTT10=
PLAYORDER=
